<svg width="534" height="70" viewBox="0 0 534 70" fill="none" xmlns="http://www.w3.org/2000/svg">
<path d="M66.783 34.1873C66.783 34.5208 66.783 34.8544 66.783 35.1879H50.6778V34.4374H35.1935C35.1935 34.4374 35.1935 34.1456 35.1935 33.9788C35.1935 33.812 35.1935 33.687 35.1935 33.5202H50.6778V32.7697H66.7416C66.7416 33.2284 66.7416 33.687 66.7416 34.1456L66.783 34.1873ZM34.9037 30.8519L50.0567 28.9758L50.1395 29.7262L66.1206 27.725C65.955 26.9328 65.7894 26.1407 65.5824 25.3902L49.8497 27.3498L49.9325 28.1002L34.6967 30.0181C34.7795 30.3099 34.8209 30.6018 34.8623 30.9353L34.9037 30.8519ZM34.1171 27.8918L48.6077 24.2228L48.7733 24.9316L64.1333 21.0542C63.8021 20.3038 63.4709 19.5533 63.0983 18.8446L48.1936 22.6385L48.3593 23.3473L33.7444 27.0579C33.8686 27.3498 33.9929 27.6416 34.0757 27.9335L34.1171 27.8918ZM32.8336 25.0984L46.372 19.9286L46.6204 20.6373L60.9454 15.1756C60.49 14.4669 59.9931 13.7998 59.4549 13.1744L45.7509 18.4276L45.9994 19.1364L32.2954 24.3896C32.461 24.6398 32.6266 24.9316 32.7922 25.1818L32.8336 25.0984ZM31.0533 22.5135L43.0184 16.2179L43.3496 16.885L56.5568 9.88074C55.9358 9.29705 55.3148 8.71336 54.6523 8.17136L42.2318 14.717L42.563 15.3841L30.3909 21.8047C30.5979 22.0549 30.8049 22.2633 31.0119 22.5135H31.0533ZM28.1966 19.7618L39.0025 12.7992L39.3751 13.4246L51.3402 5.71152C50.595 5.21122 49.8083 4.79429 49.0217 4.33568L38.133 11.3817L38.5056 12.007L27.3686 19.1781C27.6584 19.3449 27.9068 19.5533 28.1552 19.7618H28.1966ZM25.6297 18.1358L34.6967 10.5895L35.1521 11.1732L45.3783 2.66799C44.5089 2.33446 43.6395 2.04261 42.7286 1.75077L33.6616 9.29705L34.1171 9.88074L24.7189 17.6772C25.0087 17.8023 25.3399 17.969 25.6297 18.0941V18.1358ZM22.2348 16.8016L29.3973 9.58889L29.8941 10.1309L39.0025 0.916922C38.0088 0.750153 37.0152 0.625077 35.9801 0.541692L28.1966 8.37982L28.6934 8.92182L21.1169 16.5515C21.4481 16.6349 21.8207 16.7183 22.152 16.8016H22.2348ZM18.2602 16.1763L23.9736 9.17197L24.5533 9.63059L32.0056 0.5C30.8877 0.541692 29.7699 0.666769 28.652 0.833537L22.7316 8.12967L23.3112 8.58828L17.1423 16.1763C17.1423 16.1763 17.4736 16.1763 17.6806 16.1763C17.8876 16.1763 18.136 16.1763 18.343 16.1763H18.2602ZM14.8652 16.3847L19.2538 9.46382L19.8749 9.88074L25.1743 1.5423C23.9736 1.87584 22.773 2.25107 21.6137 2.70969L17.8876 8.58828L18.5086 9.0052L13.6232 16.6766C14.0372 16.5932 14.4512 16.5098 14.8652 16.4264V16.3847ZM11.0563 17.4687L14.2028 11.465L14.8652 11.7986L19.0468 3.83537C17.6806 4.50245 16.3971 5.25291 15.1551 6.08675L12.7538 10.6729L13.4162 11.0064L9.69003 18.0941C10.1454 17.8856 10.6009 17.6772 11.0563 17.4687ZM8.32377 18.8862L9.69003 15.0089L10.3939 15.259L13.0022 7.75444C11.6773 8.83844 10.4353 10.0058 9.27601 11.2566L8.15816 14.5086L8.86199 14.7587L7.08172 19.8452C7.49574 19.5116 7.90975 19.2198 8.36517 18.9696L8.32377 18.8862ZM4.97023 21.6379L5.54985 18.8029L6.25368 18.9696L7.45433 13.2995C6.21228 14.9255 5.09444 16.6766 4.1422 18.511L4.68042 18.6361L3.60397 23.3056C4.01799 22.7219 4.51481 22.1799 4.97023 21.6379ZM2.48613 24.9316V21.221C1.57529 23.5975 0.954261 26.5576 0.623047 29.4761C1.03706 27.8501 1.65809 26.3491 2.48613 24.9316ZM0.623047 38.6483C0.954261 41.1499 1.57529 43.5263 2.44472 45.8194V43.0677C1.65809 41.6919 1.03706 40.2326 0.623047 38.6483ZM3.68678 44.9022L4.63902 49.4049L4.10079 49.53C5.05303 51.3645 6.17088 53.1155 7.41293 54.7415L6.21228 49.0714L5.50845 49.2382L4.88743 46.4031C4.43201 45.9445 4.01799 45.4442 3.64537 44.9439L3.68678 44.9022ZM6.99892 48.2375L8.77919 53.324L8.07536 53.5741L9.19321 56.8261C10.3525 58.0769 11.5945 59.2443 12.9194 60.3283L10.3111 52.8237L9.60723 53.0738L8.24097 49.1965C7.78555 48.9046 7.37153 48.6128 6.95751 48.3209L6.99892 48.2375ZM9.64863 49.9052L13.3748 56.9929L12.7124 57.3264L15.1137 61.9126C16.3557 62.7464 17.6392 63.4969 19.0054 64.164L14.8238 56.2007L14.1614 56.5343L10.9735 50.4889C10.5181 50.2805 10.0626 50.072 9.60723 49.8635L9.64863 49.9052ZM13.5818 51.4061L18.4672 59.0775L17.8462 59.4944L21.5723 65.373C22.7316 65.8316 23.9322 66.2069 25.1329 66.5404L19.7921 58.202L19.171 58.6189L14.7824 51.698C14.3684 51.6146 13.9544 51.5312 13.5404 51.4478L13.5818 51.4061ZM17.0595 51.8648L23.2284 59.4527L22.6488 59.9114L28.5692 67.2075C29.6457 67.3743 30.7635 67.4993 31.9228 67.541L24.4705 58.4104L23.8908 58.869L18.1774 51.8648C18.1774 51.8648 17.7634 51.8648 17.5564 51.8648C17.3908 51.8648 17.1837 51.8648 17.0181 51.8648H17.0595ZM21.1583 51.4895L28.7348 59.1192L28.238 59.6612L36.0215 67.4993C37.0566 67.4159 38.0502 67.2909 39.0439 67.1241L29.9355 57.9518L29.4387 58.4938L22.2762 51.2811C21.9449 51.3645 21.5723 51.4478 21.2411 51.5312L21.1583 51.4895ZM24.7189 50.3638L34.1171 58.1603L33.6616 58.744L42.7286 66.2903C43.6395 66.0401 44.5089 65.7066 45.3783 65.373L35.1521 56.8678L34.6967 57.4515L25.6297 49.9052C25.3399 50.072 25.0501 50.1971 24.7189 50.3222V50.3638ZM27.3686 48.8629L38.5056 56.034L38.133 56.6594L49.0217 63.7053C49.8083 63.2884 50.595 62.8298 51.3402 62.3295L39.3751 54.6164L39.0025 55.2418L28.1966 48.2792C27.9482 48.4877 27.6584 48.6545 27.41 48.8629H27.3686ZM30.4323 46.2363L42.563 52.6569L42.2318 53.324L54.6523 59.8697C55.3148 59.3277 55.9358 58.744 56.5568 58.1603L43.3496 51.156L43.0184 51.8231L31.0947 45.5275C30.8877 45.7777 30.6807 46.0279 30.4737 46.2363H30.4323ZM32.3368 43.7348L45.9994 48.988L45.7509 49.6968L59.4549 54.95C59.9517 54.2829 60.4486 53.6158 60.9454 52.9488L46.6204 47.4871L46.372 48.1958L32.8336 43.026C32.668 43.3179 32.5024 43.568 32.3368 43.8182V43.7348ZM33.7858 41.0248L48.3593 44.6937L48.1936 45.4025L63.0983 49.1965C63.4709 48.4877 63.8021 47.7372 64.1333 46.9868L48.7733 43.1094L48.6077 43.8182L34.1585 40.1493C34.0343 40.4411 33.9515 40.733 33.8272 41.0248H33.7858ZM34.7381 38.1063L49.9325 39.9825L49.8497 40.7329L65.5824 42.6925C65.7894 41.9003 65.955 41.1499 66.1206 40.3577L50.1395 38.3565L50.0567 39.107L34.9451 37.2308C34.9037 37.5227 34.8209 37.8562 34.7795 38.148L34.7381 38.1063Z" fill="black"/>
<path d="M87.5654 56.4092H82.2246V11.6318H103.257C112.531 11.6318 117.499 17.5938 117.499 24.7232C117.499 33.8121 111.164 38.6484 103.257 38.6484H87.5654V56.3675V56.4092ZM87.5654 16.5515V33.7704H103.505C109.012 33.7704 112.034 29.7262 112.034 24.7649C112.034 19.47 108.225 16.5932 103.505 16.5932H87.5654V16.5515Z" fill="black"/>
<path d="M128.717 56.4092H123.459V11.6318H128.717V56.4092Z" fill="black"/>
<path d="M147.724 56.9102C140.106 56.9102 135.221 52.9494 135.221 46.7373C135.221 38.9408 142.714 37.4816 149.463 36.7729C154.597 36.2725 159.068 36.3142 159.11 33.5626C159.027 29.2683 155.549 26.2664 150.457 26.2664C145.364 26.2664 141.762 29.0181 141.183 33.0623H135.966C136.587 26.4332 142.59 21.7637 150.581 21.7637C158.571 21.7637 164.243 26.7667 164.243 33.8961V56.4099H159.358V50.573C157.371 54.492 153.562 56.9102 147.724 56.9102ZM148.511 52.3657C154.804 52.3657 159.11 48.3216 159.11 42.6931V38.2738C157.66 40.275 153.893 40.6502 149.794 41.0671C145.157 41.5675 140.52 42.2345 140.52 46.5705C140.52 50.0727 143.708 52.324 148.511 52.324V52.3657Z" fill="black"/>
<path d="M183.782 57.0763C175.792 57.0763 169.871 52.8654 169.416 45.6944H174.55C174.922 50.1137 178.938 52.5319 184.031 52.5319C188.792 52.5319 191.069 50.6974 191.069 47.2787C191.069 44.0684 188.585 43.3596 185.107 42.1505L180.222 40.4829C175.254 38.8152 170.327 37.2726 170.327 31.1438C170.327 25.3903 174.757 21.6797 182.126 21.6797C189.496 21.6797 194.712 25.7238 195.541 33.2701H190.407C189.827 28.5589 186.515 26.2241 181.961 26.2241C177.821 26.2241 175.419 28.0586 175.419 31.0187C175.419 34.5209 179.104 35.2296 181.878 36.1886L186.432 37.7312C192.601 39.7741 196.286 41.9004 196.286 47.5288C196.286 53.4908 191.98 57.0763 183.782 57.0763Z" fill="black"/>
<path d="M207.049 56.4099H201.791V22.5141H205.973L206.469 27.7673C208.747 24.1401 213.135 21.7637 217.979 21.7637C223.072 21.7637 226.88 24.3903 228.578 28.4761C230.731 24.5154 235.368 21.7637 240.502 21.7637C247.623 21.7637 252.177 26.8084 252.177 33.7293V56.4099H246.919V33.8961C246.919 29.3516 244.145 26.4332 239.632 26.4332C233.339 26.4332 229.654 30.6441 229.613 35.8139V56.4099H224.396V33.8961C224.396 29.3516 221.622 26.4332 217.11 26.4332C210.817 26.4332 207.132 30.6441 207.09 35.8139V56.4099H207.049Z" fill="black"/>
<path d="M269.197 56.9102C261.579 56.9102 256.693 52.9494 256.693 46.7373C256.693 38.9408 264.187 37.4816 270.936 36.7729C276.069 36.2725 280.541 36.3142 280.582 33.5626C280.499 29.2683 277.022 26.2664 271.929 26.2664C266.837 26.2664 263.235 29.0181 262.655 33.0623H257.439C258.06 26.4332 264.063 21.7637 272.053 21.7637C280.044 21.7637 285.716 26.7667 285.716 33.8961V56.4099H280.831V50.573C278.843 54.492 275.034 56.9102 269.197 56.9102ZM269.983 52.3657C276.276 52.3657 280.582 48.3216 280.582 42.6931V38.2738C279.133 40.275 275.366 40.6502 271.267 41.0671C266.63 41.5675 261.993 42.2345 261.993 46.5705C261.993 50.0727 265.181 52.324 269.983 52.324V52.3657Z" fill="black"/>
<path d="M337.495 56.4638H306.559V11.9965H336.923V16.8879H311.831V30.9269H334.382V35.6912H311.831V51.5724H337.495V56.4638Z" fill="black"/>
<path d="M346.331 56.4638H340.36L352.556 39.7568L340.487 22.7957H346.395L355.542 35.8183L364.626 22.7957H370.534L358.464 39.6933L370.661 56.4638H364.69L355.542 43.5048L346.331 56.4638Z" fill="black"/>
<path d="M380.145 69.1687H374.872V22.7957H379.065L379.637 28.8941C382.051 24.7015 386.497 22.0334 391.961 22.0334C400.854 22.0334 407.079 29.1482 407.079 39.4392C407.079 49.9208 400.854 57.1626 391.961 57.1626C386.815 57.1626 382.559 54.8122 380.145 50.8736V69.1687ZM391.135 52.5888C397.36 52.5888 401.616 47.1892 401.616 39.4392C401.616 31.8798 397.36 26.6072 391.071 26.6072C384.719 26.6072 380.145 31.7527 380.145 39.1851C380.145 47.0622 384.719 52.5888 391.135 52.5888Z" fill="black"/>
<path d="M417.571 56.4638H412.299V8.82031H417.571V56.4638Z" fill="black"/>
<path d="M439.272 57.1626C428.473 57.1626 422.756 49.4761 422.756 39.3121C422.756 28.0683 430.124 22.0334 439.272 22.0334C450.008 22.0334 455.788 29.7834 455.788 39.3121C455.788 50.9372 448.737 57.1626 439.272 57.1626ZM439.272 52.5888C446.45 52.5888 450.389 46.6175 450.389 39.3121C450.389 31.7527 446.006 26.6072 439.272 26.6072C432.538 26.6072 428.155 31.7527 428.155 39.3121C428.155 47.9515 433.174 52.5888 439.272 52.5888Z" fill="black"/>
<path d="M466.052 56.4638H460.779V22.7957H464.972L465.607 29.2117C467.767 24.8921 471.705 22.6052 477.295 22.6052H478.439V27.8142H477.295C470.181 27.8142 466.052 31.8798 466.052 38.8039V56.4638Z" fill="black"/>
<path d="M495.885 57.1626C485.911 57.1626 479.305 49.8572 479.305 39.7568C479.305 28.2589 486.737 22.0334 495.25 22.0334C504.524 22.0334 510.496 28.2589 510.686 39.058V40.5191H484.577C484.895 47.6974 489.088 52.5888 495.885 52.5888C500.586 52.5888 504.016 50.2384 505.414 45.8552H510.559C509.034 52.7794 503.571 57.1626 495.885 57.1626ZM484.895 36.1359H505.159C504.207 30.2281 500.649 26.6072 495.25 26.6072C489.914 26.6072 485.975 30.1011 484.895 36.1359Z" fill="black"/>
<path d="M520.988 56.4638H515.715V22.7957H519.908L520.543 29.2117C522.703 24.8921 526.642 22.6052 532.232 22.6052H533.375V27.8142H532.232C525.117 27.8142 520.988 31.8798 520.988 38.8039V56.4638Z" fill="black"/>
</svg>
